# xmcd CD database file
#
# Track frame offsets:
#	150
#	55075
#	102662
#	116972
#	133235
#	181642
#	200905
#
# Disc length: 3042 seconds
#
# Revision: 0
# Processed by: cddbd v1.5.2PL0 Copyright (c) Steve Scherf et al.
# Submitted via: CDex 1.70beta3
#
DISCID=6b0be007
DTITLE=Honda Takehiro - See All Kind
DYEAR=1900
DGENRE=Jazz
TTITLE0=Mystery Circle ～ Stella by Starlight
TTITLE1=Summertime
TTITLE2=Ku Ongea
TTITLE3=In a Sentimental Mood
TTITLE4=I Thought About You
TTITLE5=Left Alone
TTITLE6=See All Kind
EXTD=
EXTT0=
EXTT1=
EXTT2=
EXTT3=
EXTT4=
EXTT5=
EXTT6=
PLAYORDER=
